<svg width="29" height="27" viewBox="0 0 29 27" fill="none" xmlns="http://www.w3.org/2000/svg">
<path d="M1.90534 10.4722V22.9722C1.90534 23.7089 2.19435 24.4155 2.70879 24.9364C3.22324 25.4573 3.92097 25.75 4.64851 25.75H23.8507C24.5782 25.75 25.276 25.4573 25.7904 24.9364C26.3048 24.4155 26.5939 23.7089 26.5939 22.9722V10.4722M18.1353 25.75V17.4167C18.1353 16.68 17.8463 15.9734 17.3318 15.4525C16.8174 14.9315 16.1197 14.6389 15.3921 14.6389H12.649C11.9214 14.6389 11.2237 14.9315 10.7092 15.4525C10.1948 15.9734 9.90579 16.68 9.90579 17.4167V25.75M19.0501 0.75H24.6009C24.7798 0.74996 24.9537 0.808904 25.0965 0.917914C25.2393 1.02692 25.3432 1.18007 25.3924 1.35417L27.7158 9.58889C27.7491 9.69903 27.7582 9.8152 27.7426 9.92929C27.7269 10.0434 27.6869 10.1526 27.6252 10.2494C27.5636 10.3462 27.4818 10.4283 27.3857 10.4898C27.2895 10.5513 27.1812 10.5908 27.0684 10.6056C25.9081 10.75 23.8726 10.9069 22.4791 10.4722C21.663 10.2181 20.6179 9.62083 20.0829 9.29722C19.975 9.23112 19.8841 9.13997 19.8178 9.0313C19.7515 8.92263 19.7117 8.79955 19.7016 8.67222L19.0501 0.75ZM19.0501 0.75L19.6948 8.58194C19.708 8.73274 19.679 8.88426 19.6111 9.01912C19.5431 9.15398 19.439 9.26673 19.3107 9.34444C18.7594 9.675 17.7718 10.2292 16.9928 10.4722C14.945 11.1111 13.5542 11.1111 11.5064 10.4722C10.7274 10.2292 9.73983 9.675 9.18845 9.34583C9.05993 9.26802 8.9557 9.15504 8.88776 9.01991C8.81982 8.88477 8.79093 8.73297 8.80441 8.58194L9.44905 0.75M19.0501 0.75L9.44905 0.75M9.44905 0.75L8.79755 8.67222C8.78769 8.79979 8.74796 8.92315 8.68166 9.03208C8.61535 9.14101 8.52437 9.23237 8.41625 9.29861C7.8827 9.62083 6.83618 10.2181 6.02009 10.4722C4.62656 10.9056 2.58976 10.75 1.43077 10.6042C1.31827 10.5893 1.21032 10.5499 1.11439 10.4885C1.01847 10.4272 0.936877 10.3455 0.87528 10.249C0.813683 10.1525 0.773556 10.0436 0.757687 9.92988C0.741818 9.81613 0.750585 9.70025 0.783381 9.59028L3.10685 1.35417C3.15602 1.18007 3.25986 1.02692 3.40266 0.917914C3.54545 0.808904 3.71942 0.74996 3.89825 0.75L9.44905 0.75Z" stroke="black" stroke-width="1.5"/>
</svg>
